<?xml version="1.0" encoding="us-ascii" standalone="no"?><svg xmlns="http://www.w3.org/2000/svg" xmlns:xlink="http://www.w3.org/1999/xlink" contentStyleType="text/css" height="614px" preserveAspectRatio="none" style="width:558px;height:614px;background:#FFFFFF;" version="1.1" viewBox="0 0 558 614" width="558px" zoomAndPan="magnify"><defs/><g><!--class Sucursales--><g id="elem_Sucursales"><rect codeLine="1" fill="#F1F1F1" height="96.8906" id="Sucursales" rx="2.5" ry="2.5" style="stroke:#181818;stroke-width:0.5;" width="241" x="7" y="164"/><ellipse cx="86.25" cy="180" fill="#ADD1B2" rx="11" ry="11" style="stroke:#181818;stroke-width:1.0;"/><path d="M85.0469,180.875 L86.5,180.875 L86.5,180.9844 C86.5,181.3906 86.5313,181.5469 86.6094,181.7031 C86.7656,181.9531 87.0469,182.1094 87.3438,182.1094 C87.5938,182.1094 87.8594,181.9688 88.0156,181.75 C88.1406,181.5938 88.1719,181.4375 88.1719,180.9844 L88.1719,179.0625 C88.1719,178.9063 88.1719,178.8594 88.1563,178.7031 C88.0938,178.2344 87.7813,177.9219 87.3281,177.9219 C87.0781,177.9219 86.8125,178.0625 86.6406,178.2813 C86.5313,178.4531 86.5,178.6094 86.5,179.0625 L86.5,179.1875 L85.0469,179.1875 L85.0469,176.7813 L89.0313,176.7813 L89.0313,177.6406 C89.0313,178.0469 89.0625,178.2188 89.1406,178.375 C89.3125,178.625 89.5938,178.7813 89.875,178.7813 C90.1406,178.7813 90.4063,178.6406 90.5781,178.4219 C90.6875,178.25 90.7188,178.1094 90.7188,177.6406 L90.7188,175.0938 L83.0938,175.0938 C82.6563,175.0938 82.5313,175.1094 82.375,175.2031 C82.125,175.3594 81.9688,175.6563 81.9688,175.9375 C81.9688,176.2188 82.1094,176.4688 82.3281,176.6406 C82.4844,176.75 82.6719,176.7813 83.0938,176.7813 L83.3438,176.7813 L83.3438,183.2969 L83.0938,183.2969 C82.6875,183.2969 82.5313,183.3125 82.375,183.4219 C82.125,183.5938 81.9688,183.8594 81.9688,184.1563 C81.9688,184.4219 82.1094,184.6719 82.3281,184.8281 C82.4688,184.9531 82.7031,185 83.0938,185 L91.0938,185 L91.0938,182.4219 C91.0938,181.9844 91.0625,181.8438 90.9844,181.6875 C90.8125,181.4375 90.5313,181.2813 90.25,181.2813 C89.9844,181.2813 89.7188,181.3906 89.5469,181.6406 C89.4375,181.7969 89.4063,181.9375 89.4063,182.4219 L89.4063,183.2969 L85.0469,183.2969 L85.0469,180.875 Z " fill="#000000"/><text fill="#000000" font-family="sans-serif" font-size="14" lengthAdjust="spacing" textLength="74" x="106.75" y="184.8467">Sucursales</text><line style="stroke:#181818;stroke-width:0.5;" x1="8" x2="247" y1="196" y2="196"/><ellipse cx="18" cy="209.6484" fill="none" rx="3" ry="3" style="stroke:#038048;stroke-width:1.0;"/><text fill="#000000" font-family="sans-serif" font-size="14" lengthAdjust="spacing" textLength="103" x="27" y="212.9951">activo : FLOAT</text><line style="stroke:#181818;stroke-width:0.5;" x1="8" x2="247" y1="220.2969" y2="220.2969"/><ellipse cx="18" cy="233.9453" fill="#84BE84" rx="3" ry="3" style="stroke:#038048;stroke-width:1.0;"/><text fill="#000000" font-family="sans-serif" font-size="14" lengthAdjust="spacing" textLength="215" x="27" y="237.292">nombreSuc : varchar(50) &#171;PK&#187;</text><ellipse cx="18" cy="250.2422" fill="#84BE84" rx="3" ry="3" style="stroke:#038048;stroke-width:1.0;"/><text fill="#000000" font-family="sans-serif" font-size="14" lengthAdjust="spacing" textLength="165" x="27" y="253.5889">ciudadSuc : varchar(50)</text></g><!--class Empleados--><g id="elem_Empleados"><rect codeLine="7" fill="#F1F1F1" height="113.1875" id="Empleados" rx="2.5" ry="2.5" style="stroke:#181818;stroke-width:0.5;" width="240" x="7.5" y="321"/><ellipse cx="83.75" cy="337" fill="#ADD1B2" rx="11" ry="11" style="stroke:#181818;stroke-width:1.0;"/><path d="M82.5469,337.875 L84,337.875 L84,337.9844 C84,338.3906 84.0313,338.5469 84.1094,338.7031 C84.2656,338.9531 84.5469,339.1094 84.8438,339.1094 C85.0938,339.1094 85.3594,338.9688 85.5156,338.75 C85.6406,338.5938 85.6719,338.4375 85.6719,337.9844 L85.6719,336.0625 C85.6719,335.9063 85.6719,335.8594 85.6563,335.7031 C85.5938,335.2344 85.2813,334.9219 84.8281,334.9219 C84.5781,334.9219 84.3125,335.0625 84.1406,335.2813 C84.0313,335.4531 84,335.6094 84,336.0625 L84,336.1875 L82.5469,336.1875 L82.5469,333.7813 L86.5313,333.7813 L86.5313,334.6406 C86.5313,335.0469 86.5625,335.2188 86.6406,335.375 C86.8125,335.625 87.0938,335.7813 87.375,335.7813 C87.6406,335.7813 87.9063,335.6406 88.0781,335.4219 C88.1875,335.25 88.2188,335.1094 88.2188,334.6406 L88.2188,332.0938 L80.5938,332.0938 C80.1563,332.0938 80.0313,332.1094 79.875,332.2031 C79.625,332.3594 79.4688,332.6563 79.4688,332.9375 C79.4688,333.2188 79.6094,333.4688 79.8281,333.6406 C79.9844,333.75 80.1719,333.7813 80.5938,333.7813 L80.8438,333.7813 L80.8438,340.2969 L80.5938,340.2969 C80.1875,340.2969 80.0313,340.3125 79.875,340.4219 C79.625,340.5938 79.4688,340.8594 79.4688,341.1563 C79.4688,341.4219 79.6094,341.6719 79.8281,341.8281 C79.9688,341.9531 80.2031,342 80.5938,342 L88.5938,342 L88.5938,339.4219 C88.5938,338.9844 88.5625,338.8438 88.4844,338.6875 C88.3125,338.4375 88.0313,338.2813 87.75,338.2813 C87.4844,338.2813 87.2188,338.3906 87.0469,338.6406 C86.9375,338.7969 86.9063,338.9375 86.9063,339.4219 L86.9063,340.2969 L82.5469,340.2969 L82.5469,337.875 Z " fill="#000000"/><text fill="#000000" font-family="sans-serif" font-size="14" lengthAdjust="spacing" textLength="79" x="104.25" y="341.8467">Empleados</text><line style="stroke:#181818;stroke-width:0.5;" x1="8.5" x2="246.5" y1="353" y2="353"/><line style="stroke:#181818;stroke-width:0.5;" x1="8.5" x2="246.5" y1="361" y2="361"/><ellipse cx="18.5" cy="374.6484" fill="#84BE84" rx="3" ry="3" style="stroke:#038048;stroke-width:1.0;"/><text fill="#000000" font-family="sans-serif" font-size="14" lengthAdjust="spacing" textLength="188" x="27.5" y="377.9951">dniEmp : varchar(10) &#171;PK&#187;</text><ellipse cx="18.5" cy="390.9453" fill="#84BE84" rx="3" ry="3" style="stroke:#038048;stroke-width:1.0;"/><text fill="#000000" font-family="sans-serif" font-size="14" lengthAdjust="spacing" textLength="184" x="27.5" y="394.292">nombreEmp : varchar(50)</text><ellipse cx="18.5" cy="407.2422" fill="#84BE84" rx="3" ry="3" style="stroke:#038048;stroke-width:1.0;"/><text fill="#000000" font-family="sans-serif" font-size="14" lengthAdjust="spacing" textLength="156" x="27.5" y="410.5889">telefono : varchar(10)</text><ellipse cx="18.5" cy="423.5391" fill="#84BE84" rx="3" ry="3" style="stroke:#038048;stroke-width:1.0;"/><text fill="#000000" font-family="sans-serif" font-size="14" lengthAdjust="spacing" textLength="214" x="27.5" y="426.8857">nombreSuc : varchar(50) &#171;FK&#187;</text></g><!--class Clientes--><g id="elem_Clientes"><rect codeLine="14" fill="#F1F1F1" height="96.8906" id="Clientes" rx="2.5" ry="2.5" style="stroke:#181818;stroke-width:0.5;" width="199" x="318" y="7"/><ellipse cx="383.75" cy="23" fill="#ADD1B2" rx="11" ry="11" style="stroke:#181818;stroke-width:1.0;"/><path d="M382.5469,23.875 L384,23.875 L384,23.9844 C384,24.3906 384.0313,24.5469 384.1094,24.7031 C384.2656,24.9531 384.5469,25.1094 384.8438,25.1094 C385.0938,25.1094 385.3594,24.9688 385.5156,24.75 C385.6406,24.5938 385.6719,24.4375 385.6719,23.9844 L385.6719,22.0625 C385.6719,21.9063 385.6719,21.8594 385.6563,21.7031 C385.5938,21.2344 385.2813,20.9219 384.8281,20.9219 C384.5781,20.9219 384.3125,21.0625 384.1406,21.2813 C384.0313,21.4531 384,21.6094 384,22.0625 L384,22.1875 L382.5469,22.1875 L382.5469,19.7813 L386.5313,19.7813 L386.5313,20.6406 C386.5313,21.0469 386.5625,21.2188 386.6406,21.375 C386.8125,21.625 387.0938,21.7813 387.375,21.7813 C387.6406,21.7813 387.9063,21.6406 388.0781,21.4219 C388.1875,21.25 388.2188,21.1094 388.2188,20.6406 L388.2188,18.0938 L380.5938,18.0938 C380.1563,18.0938 380.0313,18.1094 379.875,18.2031 C379.625,18.3594 379.4688,18.6563 379.4688,18.9375 C379.4688,19.2188 379.6094,19.4688 379.8281,19.6406 C379.9844,19.75 380.1719,19.7813 380.5938,19.7813 L380.8438,19.7813 L380.8438,26.2969 L380.5938,26.2969 C380.1875,26.2969 380.0313,26.3125 379.875,26.4219 C379.625,26.5938 379.4688,26.8594 379.4688,27.1563 C379.4688,27.4219 379.6094,27.6719 379.8281,27.8281 C379.9688,27.9531 380.2031,28 380.5938,28 L388.5938,28 L388.5938,25.4219 C388.5938,24.9844 388.5625,24.8438 388.4844,24.6875 C388.3125,24.4375 388.0313,24.2813 387.75,24.2813 C387.4844,24.2813 387.2188,24.3906 387.0469,24.6406 C386.9375,24.7969 386.9063,24.9375 386.9063,25.4219 L386.9063,26.2969 L382.5469,26.2969 L382.5469,23.875 Z " fill="#000000"/><text fill="#000000" font-family="sans-serif" font-size="14" lengthAdjust="spacing" textLength="59" x="404.25" y="27.8467">Clientes</text><line style="stroke:#181818;stroke-width:0.5;" x1="319" x2="516" y1="39" y2="39"/><line style="stroke:#181818;stroke-width:0.5;" x1="319" x2="516" y1="47" y2="47"/><ellipse cx="329" cy="60.6484" fill="#84BE84" rx="3" ry="3" style="stroke:#038048;stroke-width:1.0;"/><text fill="#000000" font-family="sans-serif" font-size="14" lengthAdjust="spacing" textLength="169" x="338" y="63.9951">nombreCli : varchar(50)</text><ellipse cx="329" cy="76.9453" fill="#84BE84" rx="3" ry="3" style="stroke:#038048;stroke-width:1.0;"/><text fill="#000000" font-family="sans-serif" font-size="14" lengthAdjust="spacing" textLength="173" x="338" y="80.292">dniCli : varchar(10) &#171;PK&#187;</text><ellipse cx="329" cy="93.2422" fill="#84BE84" rx="3" ry="3" style="stroke:#038048;stroke-width:1.0;"/><text fill="#000000" font-family="sans-serif" font-size="14" lengthAdjust="spacing" textLength="159" x="338" y="96.5889">domicilio : varchar(50)</text></g><!--class Cuentas--><g id="elem_Cuentas"><rect codeLine="20" fill="#F1F1F1" height="96.8906" id="Cuentas" rx="2.5" ry="2.5" style="stroke:#181818;stroke-width:0.5;" width="240" x="289.5" y="329"/><ellipse cx="376.25" cy="345" fill="#ADD1B2" rx="11" ry="11" style="stroke:#181818;stroke-width:1.0;"/><path d="M375.0469,345.875 L376.5,345.875 L376.5,345.9844 C376.5,346.3906 376.5313,346.5469 376.6094,346.7031 C376.7656,346.9531 377.0469,347.1094 377.3438,347.1094 C377.5938,347.1094 377.8594,346.9688 378.0156,346.75 C378.1406,346.5938 378.1719,346.4375 378.1719,345.9844 L378.1719,344.0625 C378.1719,343.9063 378.1719,343.8594 378.1563,343.7031 C378.0938,343.2344 377.7813,342.9219 377.3281,342.9219 C377.0781,342.9219 376.8125,343.0625 376.6406,343.2813 C376.5313,343.4531 376.5,343.6094 376.5,344.0625 L376.5,344.1875 L375.0469,344.1875 L375.0469,341.7813 L379.0313,341.7813 L379.0313,342.6406 C379.0313,343.0469 379.0625,343.2188 379.1406,343.375 C379.3125,343.625 379.5938,343.7813 379.875,343.7813 C380.1406,343.7813 380.4063,343.6406 380.5781,343.4219 C380.6875,343.25 380.7188,343.1094 380.7188,342.6406 L380.7188,340.0938 L373.0938,340.0938 C372.6563,340.0938 372.5313,340.1094 372.375,340.2031 C372.125,340.3594 371.9688,340.6563 371.9688,340.9375 C371.9688,341.2188 372.1094,341.4688 372.3281,341.6406 C372.4844,341.75 372.6719,341.7813 373.0938,341.7813 L373.3438,341.7813 L373.3438,348.2969 L373.0938,348.2969 C372.6875,348.2969 372.5313,348.3125 372.375,348.4219 C372.125,348.5938 371.9688,348.8594 371.9688,349.1563 C371.9688,349.4219 372.1094,349.6719 372.3281,349.8281 C372.4688,349.9531 372.7031,350 373.0938,350 L381.0938,350 L381.0938,347.4219 C381.0938,346.9844 381.0625,346.8438 380.9844,346.6875 C380.8125,346.4375 380.5313,346.2813 380.25,346.2813 C379.9844,346.2813 379.7188,346.3906 379.5469,346.6406 C379.4375,346.7969 379.4063,346.9375 379.4063,347.4219 L379.4063,348.2969 L375.0469,348.2969 L375.0469,345.875 Z " fill="#000000"/><text fill="#000000" font-family="sans-serif" font-size="14" lengthAdjust="spacing" textLength="58" x="396.75" y="349.8467">Cuentas</text><line style="stroke:#181818;stroke-width:0.5;" x1="290.5" x2="528.5" y1="361" y2="361"/><ellipse cx="300.5" cy="374.6484" fill="none" rx="3" ry="3" style="stroke:#038048;stroke-width:1.0;"/><text fill="#000000" font-family="sans-serif" font-size="14" lengthAdjust="spacing" textLength="84" x="309.5" y="377.9951">saldo : float</text><line style="stroke:#181818;stroke-width:0.5;" x1="290.5" x2="528.5" y1="385.2969" y2="385.2969"/><ellipse cx="300.5" cy="398.9453" fill="#84BE84" rx="3" ry="3" style="stroke:#038048;stroke-width:1.0;"/><text fill="#000000" font-family="sans-serif" font-size="14" lengthAdjust="spacing" textLength="204" x="309.5" y="402.292">numeroCta : varchar(5) &#171;PK&#187;</text><ellipse cx="300.5" cy="415.2422" fill="#84BE84" rx="3" ry="3" style="stroke:#038048;stroke-width:1.0;"/><text fill="#000000" font-family="sans-serif" font-size="14" lengthAdjust="spacing" textLength="214" x="309.5" y="418.5889">nombreSuc : varchar(50) &#171;FK&#187;</text></g><!--class CtaCli--><g id="elem_CtaCli"><rect codeLine="26" fill="#F1F1F1" height="80.5938" id="CtaCli" rx="2.5" ry="2.5" style="stroke:#181818;stroke-width:0.5;" width="268" x="283.5" y="172"/><ellipse cx="391.75" cy="188" fill="#ADD1B2" rx="11" ry="11" style="stroke:#181818;stroke-width:1.0;"/><path d="M390.5469,188.875 L392,188.875 L392,188.9844 C392,189.3906 392.0313,189.5469 392.1094,189.7031 C392.2656,189.9531 392.5469,190.1094 392.8438,190.1094 C393.0938,190.1094 393.3594,189.9688 393.5156,189.75 C393.6406,189.5938 393.6719,189.4375 393.6719,188.9844 L393.6719,187.0625 C393.6719,186.9063 393.6719,186.8594 393.6563,186.7031 C393.5938,186.2344 393.2813,185.9219 392.8281,185.9219 C392.5781,185.9219 392.3125,186.0625 392.1406,186.2813 C392.0313,186.4531 392,186.6094 392,187.0625 L392,187.1875 L390.5469,187.1875 L390.5469,184.7813 L394.5313,184.7813 L394.5313,185.6406 C394.5313,186.0469 394.5625,186.2188 394.6406,186.375 C394.8125,186.625 395.0938,186.7813 395.375,186.7813 C395.6406,186.7813 395.9063,186.6406 396.0781,186.4219 C396.1875,186.25 396.2188,186.1094 396.2188,185.6406 L396.2188,183.0938 L388.5938,183.0938 C388.1563,183.0938 388.0313,183.1094 387.875,183.2031 C387.625,183.3594 387.4688,183.6563 387.4688,183.9375 C387.4688,184.2188 387.6094,184.4688 387.8281,184.6406 C387.9844,184.75 388.1719,184.7813 388.5938,184.7813 L388.8438,184.7813 L388.8438,191.2969 L388.5938,191.2969 C388.1875,191.2969 388.0313,191.3125 387.875,191.4219 C387.625,191.5938 387.4688,191.8594 387.4688,192.1563 C387.4688,192.4219 387.6094,192.6719 387.8281,192.8281 C387.9688,192.9531 388.2031,193 388.5938,193 L396.5938,193 L396.5938,190.4219 C396.5938,189.9844 396.5625,189.8438 396.4844,189.6875 C396.3125,189.4375 396.0313,189.2813 395.75,189.2813 C395.4844,189.2813 395.2188,189.3906 395.0469,189.6406 C394.9375,189.7969 394.9063,189.9375 394.9063,190.4219 L394.9063,191.2969 L390.5469,191.2969 L390.5469,188.875 Z " fill="#000000"/><text fill="#000000" font-family="sans-serif" font-size="14" lengthAdjust="spacing" textLength="43" x="412.25" y="192.8467">CtaCli</text><line style="stroke:#181818;stroke-width:0.5;" x1="284.5" x2="550.5" y1="204" y2="204"/><line style="stroke:#181818;stroke-width:0.5;" x1="284.5" x2="550.5" y1="212" y2="212"/><ellipse cx="294.5" cy="225.6484" fill="#84BE84" rx="3" ry="3" style="stroke:#038048;stroke-width:1.0;"/><text fill="#000000" font-family="sans-serif" font-size="14" lengthAdjust="spacing" textLength="211" x="303.5" y="228.9951">dniCli : varchar(10) &#171;PK&#187; &#171;FK&#187;</text><ellipse cx="294.5" cy="241.9453" fill="#84BE84" rx="3" ry="3" style="stroke:#038048;stroke-width:1.0;"/><text fill="#000000" font-family="sans-serif" font-size="14" lengthAdjust="spacing" textLength="242" x="303.5" y="245.292">numeroCta : varchar(5) &#171;PK&#187; &#171;FK&#187;</text></g><!--class Transacciones--><g id="elem_Transacciones"><rect codeLine="31" fill="#F1F1F1" height="113.1875" id="Transacciones" rx="2.5" ry="2.5" style="stroke:#181818;stroke-width:0.5;" width="268" x="275.5" y="494"/><ellipse cx="354.75" cy="510" fill="#ADD1B2" rx="11" ry="11" style="stroke:#181818;stroke-width:1.0;"/><path d="M353.5469,510.875 L355,510.875 L355,510.9844 C355,511.3906 355.0313,511.5469 355.1094,511.7031 C355.2656,511.9531 355.5469,512.1094 355.8438,512.1094 C356.0938,512.1094 356.3594,511.9688 356.5156,511.75 C356.6406,511.5938 356.6719,511.4375 356.6719,510.9844 L356.6719,509.0625 C356.6719,508.9063 356.6719,508.8594 356.6563,508.7031 C356.5938,508.2344 356.2813,507.9219 355.8281,507.9219 C355.5781,507.9219 355.3125,508.0625 355.1406,508.2813 C355.0313,508.4531 355,508.6094 355,509.0625 L355,509.1875 L353.5469,509.1875 L353.5469,506.7813 L357.5313,506.7813 L357.5313,507.6406 C357.5313,508.0469 357.5625,508.2188 357.6406,508.375 C357.8125,508.625 358.0938,508.7813 358.375,508.7813 C358.6406,508.7813 358.9063,508.6406 359.0781,508.4219 C359.1875,508.25 359.2188,508.1094 359.2188,507.6406 L359.2188,505.0938 L351.5938,505.0938 C351.1563,505.0938 351.0313,505.1094 350.875,505.2031 C350.625,505.3594 350.4688,505.6563 350.4688,505.9375 C350.4688,506.2188 350.6094,506.4688 350.8281,506.6406 C350.9844,506.75 351.1719,506.7813 351.5938,506.7813 L351.8438,506.7813 L351.8438,513.2969 L351.5938,513.2969 C351.1875,513.2969 351.0313,513.3125 350.875,513.4219 C350.625,513.5938 350.4688,513.8594 350.4688,514.1563 C350.4688,514.4219 350.6094,514.6719 350.8281,514.8281 C350.9688,514.9531 351.2031,515 351.5938,515 L359.5938,515 L359.5938,512.4219 C359.5938,511.9844 359.5625,511.8438 359.4844,511.6875 C359.3125,511.4375 359.0313,511.2813 358.75,511.2813 C358.4844,511.2813 358.2188,511.3906 358.0469,511.6406 C357.9375,511.7969 357.9063,511.9375 357.9063,512.4219 L357.9063,513.2969 L353.5469,513.2969 L353.5469,510.875 Z " fill="#000000"/><text fill="#000000" font-family="sans-serif" font-size="14" lengthAdjust="spacing" textLength="101" x="375.25" y="514.8467">Transacciones</text><line style="stroke:#181818;stroke-width:0.5;" x1="276.5" x2="542.5" y1="526" y2="526"/><ellipse cx="286.5" cy="539.6484" fill="none" rx="3" ry="3" style="stroke:#038048;stroke-width:1.0;"/><text fill="#000000" font-family="sans-serif" font-size="14" lengthAdjust="spacing" textLength="86" x="295.5" y="542.9951">fecha : date</text><ellipse cx="286.5" cy="555.9453" fill="none" rx="3" ry="3" style="stroke:#038048;stroke-width:1.0;"/><text fill="#000000" font-family="sans-serif" font-size="14" lengthAdjust="spacing" textLength="106" x="295.5" y="559.292">importe : float</text><line style="stroke:#181818;stroke-width:0.5;" x1="276.5" x2="542.5" y1="566.5938" y2="566.5938"/><ellipse cx="286.5" cy="580.2422" fill="#84BE84" rx="3" ry="3" style="stroke:#038048;stroke-width:1.0;"/><text fill="#000000" font-family="sans-serif" font-size="14" lengthAdjust="spacing" textLength="242" x="295.5" y="583.5889">numeroCta : varchar(5) &#171;PK&#187; &#171;FK&#187;</text><ellipse cx="286.5" cy="596.5391" fill="#84BE84" rx="3" ry="3" style="stroke:#038048;stroke-width:1.0;"/><text fill="#000000" font-family="sans-serif" font-size="14" lengthAdjust="spacing" textLength="218" x="295.5" y="599.8857">numeroTrans : varchar(5) &#171;PK&#187;</text></g><!--link Clientes to CtaCli--><g id="link_Clientes_CtaCli"><path codeLine="38" d="M417.5,112.27 C417.5,133.974 417.5,133.344 417.5,153.958 " fill="none" id="Clientes-CtaCli" style="stroke:#181818;stroke-width:1.0;"/><line style="stroke:#181818;stroke-width:1.0;" x1="413.5" x2="421.5" y1="108.27" y2="108.27"/><line style="stroke:#181818;stroke-width:1.0;" x1="413.5" x2="421.5" y1="111.27" y2="111.27"/><line style="stroke:#181818;stroke-width:1.0;" x1="417.5" x2="417.5" y1="112.27" y2="104.27"/><line style="stroke:#181818;stroke-width:1.0;" x1="417.5" x2="423.5" y1="163.958" y2="171.958"/><line style="stroke:#181818;stroke-width:1.0;" x1="417.5" x2="411.5" y1="163.958" y2="171.958"/><line style="stroke:#181818;stroke-width:1.0;" x1="417.5" x2="417.5" y1="163.958" y2="171.958"/><ellipse cx="417.5" cy="157.958" fill="none" rx="4" ry="4" style="stroke:#181818;stroke-width:1.0;"/></g><!--link CtaCli to Cuentas--><g id="link_CtaCli_Cuentas"><path codeLine="39" d="M414.661,271.3524 C413.542,294.1614 413.4041,296.9466 412.2271,320.9306 " fill="none" id="CtaCli-Cuentas" style="stroke:#181818;stroke-width:1.0;"/><line style="stroke:#181818;stroke-width:1.0;" x1="415.151" x2="409.5502" y1="261.3644" y2="253.08"/><line style="stroke:#181818;stroke-width:1.0;" x1="415.151" x2="421.5358" y1="261.3644" y2="253.668"/><line style="stroke:#181818;stroke-width:1.0;" x1="415.151" x2="415.543" y1="261.3644" y2="253.374"/><ellipse cx="414.857" cy="267.3572" fill="none" rx="4" ry="4" style="stroke:#181818;stroke-width:1.0;"/><line style="stroke:#181818;stroke-width:1.0;" x1="416.0263" x2="408.0359" y1="325.1219" y2="324.7297"/><line style="stroke:#181818;stroke-width:1.0;" x1="416.1733" x2="408.1829" y1="322.1255" y2="321.7334"/><line style="stroke:#181818;stroke-width:1.0;" x1="412.2271" x2="411.835" y1="320.9306" y2="328.921"/></g><!--link Sucursales to Empleados--><g id="link_Sucursales_Empleados"><path codeLine="40" d="M127.5,269.085 C127.5,287.784 127.5,283.383 127.5,302.803 " fill="none" id="Sucursales-Empleados" style="stroke:#181818;stroke-width:1.0;stroke-dasharray:7.0,7.0;"/><line style="stroke:#181818;stroke-width:1.0;" x1="123.5" x2="131.5" y1="265.085" y2="265.085"/><line style="stroke:#181818;stroke-width:1.0;" x1="123.5" x2="131.5" y1="268.085" y2="268.085"/><line style="stroke:#181818;stroke-width:1.0;" x1="127.5" x2="127.5" y1="269.085" y2="261.085"/><line style="stroke:#181818;stroke-width:1.0;" x1="127.5" x2="133.5" y1="312.803" y2="320.803"/><line style="stroke:#181818;stroke-width:1.0;" x1="127.5" x2="121.5" y1="312.803" y2="320.803"/><line style="stroke:#181818;stroke-width:1.0;" x1="127.5" x2="127.5" y1="312.803" y2="320.803"/><ellipse cx="127.5" cy="306.803" fill="none" rx="4" ry="4" style="stroke:#181818;stroke-width:1.0;"/></g><!--link Sucursales to Cuentas--><g id="link_Sucursales_Cuentas"><path codeLine="41" d="M216.7503,265.0883 C253.6543,286.4183 274.5738,298.5115 311.4898,319.8485 " fill="none" id="Sucursales-Cuentas" style="stroke:#181818;stroke-width:1.0;stroke-dasharray:7.0,7.0;"/><line style="stroke:#181818;stroke-width:1.0;" x1="211.2855" x2="215.2888" y1="266.5498" y2="259.6235"/><line style="stroke:#181818;stroke-width:1.0;" x1="213.8829" x2="217.8862" y1="268.051" y2="261.1247"/><line style="stroke:#181818;stroke-width:1.0;" x1="216.7503" x2="209.824" y1="265.0883" y2="261.085"/><line style="stroke:#181818;stroke-width:1.0;" x1="320.1477" x2="330.0765" y1="324.8527" y2="323.6613"/><line style="stroke:#181818;stroke-width:1.0;" x1="320.1477" x2="324.0715" y1="324.8527" y2="334.0507"/><line style="stroke:#181818;stroke-width:1.0;" x1="320.1477" x2="327.074" y1="324.8527" y2="328.856"/><ellipse cx="314.953" cy="321.8502" fill="none" rx="4" ry="4" style="stroke:#181818;stroke-width:1.0;"/></g><!--link Cuentas to Transacciones--><g id="link_Cuentas_Transacciones"><path codeLine="42" d="M409.5,434.133 C409.5,455.182 409.5,454.069 409.5,475.957 " fill="none" id="Cuentas-Transacciones" style="stroke:#181818;stroke-width:1.0;"/><line style="stroke:#181818;stroke-width:1.0;" x1="405.5" x2="413.5" y1="430.133" y2="430.133"/><line style="stroke:#181818;stroke-width:1.0;" x1="405.5" x2="413.5" y1="433.133" y2="433.133"/><line style="stroke:#181818;stroke-width:1.0;" x1="409.5" x2="409.5" y1="434.133" y2="426.133"/><line style="stroke:#181818;stroke-width:1.0;" x1="409.5" x2="415.5" y1="485.957" y2="493.957"/><line style="stroke:#181818;stroke-width:1.0;" x1="409.5" x2="403.5" y1="485.957" y2="493.957"/><line style="stroke:#181818;stroke-width:1.0;" x1="409.5" x2="409.5" y1="485.957" y2="493.957"/><ellipse cx="409.5" cy="479.957" fill="none" rx="4" ry="4" style="stroke:#181818;stroke-width:1.0;"/></g><!--SRC=[bLBBQiCm4BphAvQSMef3U-YbX409pQM55feVs4fhAf2zGPO39Sw_T-DNBCSXxKbYPdTdPYNAWmq_CFiiTUaBT5JCOAy0xY3dxCkJuF04E_Jw6_tDu_qjB1OVhyjbNQ9jQT2SbTGSwc1tBCJwxVrvemvAKIlracqTeU5UoUHMiC6CXrYcSHANT3A17AMSSznz9S3wE7dWQEMiNCVH1PqG5BCnCJ9hEBFQEikZtg5SAJSygPKPULu577P4C-LTp75UwXZ3VxC55B-3LLzot_LUjJGXil6O5wYrvPp-bkjShPvnSGKf2IYimK0rOBCj-q3zLiHDzunGLKd2UsYYg-Q00oT9LK6xV7Nwy58-dqjv_oydkAwhFJk5AFSl]--></g></svg>